# Blender v2.72 (sub 0) OBJ File: 'untitled.blend'
# www.blender.org
mtllib untitled.mtl
o Icosphere
v 2.156311 0.732106 0.379123
v 3.078919 1.436907 1.049428
v 1.803913 1.436907 1.463710
v 1.015907 1.436912 0.379123
v 1.803913 1.436907 -0.705465
v 3.078919 1.436907 -0.291183
v 2.508709 2.577328 1.463710
v 1.233703 2.577328 1.049428
v 1.233703 2.577328 -0.291183
v 2.508709 2.577328 -0.705465
v 3.296715 2.577323 0.379123
v 2.156311 3.282129 0.379123
v 1.949178 0.922523 1.016622
v 2.698602 0.922523 0.773116
v 2.491472 1.336796 1.410622
v 3.240897 1.336798 0.379123
v 2.698602 0.922523 -0.014871
v 1.485999 0.922527 0.379123
v 1.278862 1.336798 1.016624
v 1.949178 0.922523 -0.258377
v 1.278862 1.336798 -0.258379
v 2.491472 1.336796 -0.652377
v 3.368921 2.007118 0.773117
v 3.368921 2.007118 -0.014872
v 2.156311 2.007118 1.654134
v 2.905745 2.007118 1.410628
v 0.943701 2.007118 0.773117
v 1.406878 2.007118 1.410628
v 1.406878 2.007118 -0.652383
v 0.943701 2.007118 -0.014872
v 2.905745 2.007118 -0.652383
v 2.156311 2.007118 -0.895889
v 3.033761 2.677437 1.016624
v 1.821150 2.677439 1.410622
v 1.071725 2.677437 0.379123
v 1.821150 2.677439 -0.652377
v 3.033761 2.677437 -0.258379
v 2.363444 3.091712 1.016622
v 2.826622 3.091708 0.379123
v 1.614020 3.091712 0.773116
v 1.614020 3.091712 -0.014871
v 2.363444 3.091712 -0.258377
v 2.156311 0.732106 0.379123
v 3.078919 1.436907 1.049428
v 1.803913 1.436907 1.463710
v 1.015907 1.436912 0.379123
v 1.803913 1.436907 -0.705465
v 3.078919 1.436907 -0.291183
v 2.508709 2.577328 1.463710
v 1.233703 2.577328 1.049428
v 1.233703 2.577328 -0.291183
v 2.508709 2.577328 -0.705465
v 3.296715 2.577323 0.379123
v 2.156311 3.282129 0.379123
v 1.949178 0.922523 1.016622
v 2.698602 0.922523 0.773116
v 2.491472 1.336796 1.410622
v 3.240897 1.336798 0.379123
v 2.698602 0.922523 -0.014871
v 1.485999 0.922527 0.379123
v 1.278862 1.336798 1.016624
v 1.949178 0.922523 -0.258377
v 1.278862 1.336798 -0.258379
v 2.491472 1.336796 -0.652377
v 3.368921 2.007118 0.773117
v 3.368921 2.007118 -0.014872
v 2.156311 2.007118 1.654134
v 2.905745 2.007118 1.410628
v 0.943701 2.007118 0.773117
v 1.406878 2.007118 1.410628
v 1.406878 2.007118 -0.652383
v 0.943701 2.007118 -0.014872
v 2.905745 2.007118 -0.652383
v 2.156311 2.007118 -0.895889
v 3.033761 2.677437 1.016624
v 1.821150 2.677439 1.410622
v 1.071725 2.677437 0.379123
v 1.821150 2.677439 -0.652377
v 3.033761 2.677437 -0.258379
v 2.363444 3.091712 1.016622
v 2.826622 3.091708 0.379123
v 1.614020 3.091712 0.773116
v 1.614020 3.091712 -0.014871
v 2.363444 3.091712 -0.258377
v 2.156311 0.732106 0.379123
v 3.078919 1.436907 1.049428
v 1.803913 1.436907 1.463710
v 1.015907 1.436912 0.379123
v 1.803913 1.436907 -0.705465
v 3.078919 1.436907 -0.291183
v 2.508709 2.577328 1.463710
v 1.233703 2.577328 1.049428
v 1.233703 2.577328 -0.291183
v 2.508709 2.577328 -0.705465
v 3.296715 2.577323 0.379123
v 2.156311 3.282129 0.379123
v 1.949178 0.922523 1.016622
v 2.698602 0.922523 0.773116
v 2.491472 1.336796 1.410622
v 3.240897 1.336798 0.379123
v 2.698602 0.922523 -0.014871
v 1.485999 0.922527 0.379123
v 1.278862 1.336798 1.016624
v 1.949178 0.922523 -0.258377
v 1.278862 1.336798 -0.258379
v 2.491472 1.336796 -0.652377
v 3.368921 2.007118 0.773117
v 3.368921 2.007118 -0.014872
v 2.156311 2.007118 1.654134
v 2.905745 2.007118 1.410628
v 0.943701 2.007118 0.773117
v 1.406878 2.007118 1.410628
v 1.406878 2.007118 -0.652383
v 0.943701 2.007118 -0.014872
v 2.905745 2.007118 -0.652383
v 2.156311 2.007118 -0.895889
v 3.033761 2.677437 1.016624
v 1.821150 2.677439 1.410622
v 1.071725 2.677437 0.379123
v 1.821150 2.677439 -0.652377
v 3.033761 2.677437 -0.258379
v 2.363444 3.091712 1.016622
v 2.826622 3.091708 0.379123
v 1.614020 3.091712 0.773116
v 1.614020 3.091712 -0.014871
v 2.363444 3.091712 -0.258377
vn -0.102400 0.943500 -0.315100
vn -0.700200 0.661700 -0.268000
vn 0.268000 0.943500 -0.194700
vn 0.268000 0.943500 0.194700
vn -0.102400 0.943500 0.315100
vn -0.905000 0.330400 -0.268000
vn -0.024700 0.330400 -0.943500
vn 0.889700 0.330400 -0.315100
vn 0.574600 0.330400 0.748800
vn -0.534600 0.330400 0.777900
vn -0.802600 0.125600 -0.583100
vn 0.306600 0.125600 -0.943500
vn 0.992100 0.125600 0.000000
vn 0.306600 0.125600 0.943500
vn -0.802600 0.125600 0.583100
vn -0.408900 -0.661700 -0.628400
vn 0.471300 -0.661700 -0.583100
vn 0.700200 -0.661700 0.268000
vn -0.038500 -0.661700 0.748800
vn -0.724000 -0.661700 0.194700
vn 0.038500 0.661700 -0.748800
vn -0.187600 0.794700 -0.577300
vn -0.471300 0.661700 -0.583100
vn -0.700200 0.661700 0.268000
vn -0.607100 0.794700 0.000000
vn -0.331300 0.943500 0.000000
vn 0.724000 0.661700 -0.194700
vn 0.491100 0.794700 -0.356800
vn 0.408900 0.661700 -0.628400
vn 0.408900 0.661700 0.628400
vn 0.491100 0.794700 0.356800
vn 0.724000 0.661700 0.194700
vn -0.471300 0.661700 0.583100
vn -0.187600 0.794700 0.577300
vn 0.038500 0.661700 0.748800
vn -0.992100 -0.125600 0.000000
vn -0.982200 0.187600 0.000000
vn -0.905000 0.330400 0.268000
vn -0.306600 -0.125600 -0.943500
vn -0.303500 0.187600 -0.934200
vn -0.534600 0.330400 -0.777900
vn 0.802600 -0.125600 -0.583100
vn 0.794700 0.187600 -0.577300
vn 0.574600 0.330400 -0.748800
vn 0.802600 -0.125600 0.583100
vn 0.794700 0.187600 0.577300
vn 0.889700 0.330400 0.315100
vn -0.306600 -0.125600 0.943500
vn -0.303500 0.187600 0.934200
vn -0.024700 0.330400 0.943500
vn -0.574600 -0.330400 -0.748800
vn -0.794700 -0.187600 -0.577300
vn -0.889700 -0.330400 -0.315100
vn 0.534600 -0.330400 -0.777900
vn 0.303500 -0.187600 -0.934200
vn 0.024700 -0.330400 -0.943500
vn 0.905000 -0.330400 0.268000
vn 0.982200 -0.187600 0.000000
vn 0.905000 -0.330400 -0.268000
vn 0.024700 -0.330400 0.943500
vn 0.303500 -0.187600 0.934200
vn 0.534600 -0.330400 0.777900
vn -0.889700 -0.330400 0.315100
vn -0.794700 -0.187600 0.577300
vn -0.574600 -0.330400 0.748800
vn -0.268000 -0.943500 -0.194700
vn -0.491100 -0.794700 -0.356800
vn -0.724000 -0.661700 -0.194700
vn 0.102400 -0.943500 -0.315100
vn 0.187600 -0.794700 -0.577300
vn -0.038500 -0.661700 -0.748800
vn 0.331300 -0.943500 0.000000
vn 0.607100 -0.794700 0.000000
vn 0.700200 -0.661700 -0.268000
vn 0.102400 -0.943500 0.315100
vn 0.187600 -0.794700 0.577300
vn 0.471300 -0.661700 0.583100
vn -0.268000 -0.943500 0.194700
vn -0.491100 -0.794700 0.356800
vn -0.408900 -0.661700 0.628400
usemtl None
s off
f 1//1 13//1 14//1
f 2//2 16//2 14//2
f 1//3 18//3 13//3
f 1//4 20//4 18//4
f 1//5 17//5 20//5
f 2//6 23//6 16//6
f 3//7 25//7 15//7
f 4//8 27//8 19//8
f 5//9 29//9 21//9
f 6//10 31//10 22//10
f 2//11 26//11 23//11
f 3//12 28//12 25//12
f 4//13 30//13 27//13
f 5//14 32//14 29//14
f 6//15 24//15 31//15
f 7//16 38//16 33//16
f 8//17 40//17 34//17
f 9//18 41//18 35//18
f 10//19 42//19 36//19
f 11//20 39//20 37//20
f 13//21 3//21 15//21
f 13//22 15//22 14//22
f 14//23 15//23 2//23
f 16//24 6//24 17//24
f 16//25 17//25 14//25
f 14//26 17//26 1//26
f 18//27 4//27 19//27
f 18//28 19//28 13//28
f 13//29 19//29 3//29
f 20//30 5//30 21//30
f 20//31 21//31 18//31
f 18//32 21//32 4//32
f 17//33 6//33 22//33
f 17//34 22//34 20//34
f 20//35 22//35 5//35
f 23//36 11//36 24//36
f 23//37 24//37 16//37
f 16//38 24//38 6//38
f 25//39 7//39 26//39
f 25//40 26//40 15//40
f 15//41 26//41 2//41
f 27//42 8//42 28//42
f 27//43 28//43 19//43
f 19//44 28//44 3//44
f 29//45 9//45 30//45
f 29//46 30//46 21//46
f 21//47 30//47 4//47
f 31//48 10//48 32//48
f 31//49 32//49 22//49
f 22//50 32//50 5//50
f 26//51 7//51 33//51
f 26//52 33//52 23//52
f 23//53 33//53 11//53
f 28//54 8//54 34//54
f 28//55 34//55 25//55
f 25//56 34//56 7//56
f 30//57 9//57 35//57
f 30//58 35//58 27//58
f 27//59 35//59 8//59
f 32//60 10//60 36//60
f 32//61 36//61 29//61
f 29//62 36//62 9//62
f 24//63 11//63 37//63
f 24//64 37//64 31//64
f 31//65 37//65 10//65
f 38//66 12//66 39//66
f 38//67 39//67 33//67
f 33//68 39//68 11//68
f 40//69 12//69 38//69
f 40//70 38//70 34//70
f 34//71 38//71 7//71
f 41//72 12//72 40//72
f 41//73 40//73 35//73
f 35//74 40//74 8//74
f 42//75 12//75 41//75
f 42//76 41//76 36//76
f 36//77 41//77 9//77
f 39//78 12//78 42//78
f 39//79 42//79 37//79
f 37//80 42//80 10//80
f 43//75 56//75 55//75
f 44//18 56//18 58//18
f 43//78 55//78 60//78
f 43//66 60//66 62//66
f 43//69 62//69 59//69
f 44//57 58//57 65//57
f 45//60 57//60 67//60
f 46//63 61//63 69//63
f 47//51 63//51 71//51
f 48//54 64//54 73//54
f 44//45 65//45 68//45
f 45//48 67//48 70//48
f 46//36 69//36 72//36
f 47//39 71//39 74//39
f 48//42 73//42 66//42
f 49//30 75//30 80//30
f 50//33 76//33 82//33
f 51//2 77//2 83//2
f 52//21 78//21 84//21
f 53//27 79//27 81//27
f 55//19 57//19 45//19
f 55//76 56//76 57//76
f 56//77 44//77 57//77
f 58//74 59//74 48//74
f 58//73 56//73 59//73
f 56//72 43//72 59//72
f 60//20 61//20 46//20
f 60//79 55//79 61//79
f 55//80 45//80 61//80
f 62//16 63//16 47//16
f 62//67 60//67 63//67
f 60//68 46//68 63//68
f 59//17 64//17 48//17
f 59//70 62//70 64//70
f 62//71 47//71 64//71
f 65//13 66//13 53//13
f 65//58 58//58 66//58
f 58//59 48//59 66//59
f 67//14 68//14 49//14
f 67//61 57//61 68//61
f 57//62 44//62 68//62
f 69//15 70//15 50//15
f 69//64 61//64 70//64
f 61//65 45//65 70//65
f 71//11 72//11 51//11
f 71//52 63//52 72//52
f 63//53 46//53 72//53
f 73//12 74//12 52//12
f 73//55 64//55 74//55
f 64//56 47//56 74//56
f 68//9 75//9 49//9
f 68//46 65//46 75//46
f 65//47 53//47 75//47
f 70//10 76//10 50//10
f 70//49 67//49 76//49
f 67//50 49//50 76//50
f 72//6 77//6 51//6
f 72//37 69//37 77//37
f 69//38 50//38 77//38
f 74//7 78//7 52//7
f 74//40 71//40 78//40
f 71//41 51//41 78//41
f 66//8 79//8 53//8
f 66//43 73//43 79//43
f 73//44 52//44 79//44
f 80//4 81//4 54//4
f 80//31 75//31 81//31
f 75//32 53//32 81//32
f 82//5 80//5 54//5
f 82//34 76//34 80//34
f 76//35 49//35 80//35
f 83//26 82//26 54//26
f 83//25 77//25 82//25
f 77//24 50//24 82//24
f 84//1 83//1 54//1
f 84//22 78//22 83//22
f 78//23 51//23 83//23
f 81//3 84//3 54//3
f 81//28 79//28 84//28
f 79//29 52//29 84//29
l 43 85
l 44 86
l 45 87
l 46 88
l 47 89
l 48 90
l 49 91
l 50 92
l 51 93
l 52 94
l 53 95
l 54 96
l 55 97
l 56 98
l 57 99
l 58 100
l 59 101
l 60 102
l 61 103
l 62 104
l 63 105
l 64 106
l 65 107
l 66 108
l 67 109
l 68 110
l 69 111
l 70 112
l 71 113
l 72 114
l 73 115
l 74 116
l 75 117
l 76 118
l 77 119
l 78 120
l 79 121
l 80 122
l 81 123
l 82 124
l 83 125
l 84 126
